<?xml version="1.0" encoding="utf-8"?>
<!-- Generator: Adobe Illustrator 16.0.0, SVG Export Plug-In . SVG Version: 6.00 Build 0)  -->
<!DOCTYPE svg PUBLIC "-//W3C//DTD SVG 1.1//EN" "http://www.w3.org/Graphics/SVG/1.1/DTD/svg11.dtd">
<?xml-stylesheet type="text/css" href="./../css/style.css" ?>
<svg version="1.1" id="Layer_1" xmlns="http://www.w3.org/2000/svg" xmlns:xlink="http://www.w3.org/1999/xlink" x="0px" y="0px" viewBox="0 -4 80 80" enable-background="new 0 -4 80 80" xml:space="preserve">
<defs>
    <style><![CDATA[
        .sprite { display: none; }
        .sprite:target { display: inline; }
    ]]></style>
</defs>
<g>

	<a xlink:href= "https://twitter.com/michaelpsharpe" target="_top">
		<g class="sprite" id="twitter">
			<circle fill="none" stroke="#2C3E5B" stroke-miterlimit="10" cx="40" cy="36" r="36"/>
			<path fill="none" stroke="#2C3E5B" stroke-miterlimit="10" d="M58.75,24.257c-1.38,0.615-2.862,1.031-4.418,1.218
				c1.588-0.959,2.809-2.474,3.382-4.281c-1.486,0.886-3.132,1.531-4.885,1.877c-1.404-1.504-3.402-2.443-5.617-2.443
				c-4.249,0-7.693,3.464-7.693,7.738c0,0.607,0.068,1.196,0.199,1.763c-6.394-0.323-12.062-3.403-15.857-8.085
				c-0.663,1.143-1.042,2.472-1.042,3.89c0,2.684,1.358,5.053,3.423,6.441c-1.261-0.041-2.449-0.389-3.484-0.967
				c-0.002,0.032-0.002,0.064-0.002,0.097c0,3.75,2.652,6.878,6.172,7.589c-0.646,0.177-1.325,0.271-2.027,0.271
				c-0.495,0-0.978-0.047-1.447-0.139c0.979,3.073,3.82,5.312,7.187,5.375c-2.633,2.075-5.95,3.312-9.555,3.312
				c-0.622,0-1.234-0.036-1.836-0.109c3.406,2.197,7.45,3.479,11.794,3.479c14.151,0,21.889-11.793,21.889-22.019
				c0-0.336-0.007-0.669-0.022-1.001C56.415,27.171,57.719,25.808,58.75,24.257z"/>
		</g>
	</a>

	<a xlink:href="https://github.com/michaelsharpe" target="_top">
		<g class="sprite" id="github">
			<circle id="github-circle" fill="none" cx="40" cy="36.5" r="36"/>
			<path fill="none" stroke="#2C3E5B" stroke-miterlimit="10" d="M49.855,71.249"/>
			<path fill="none" stroke="#2C3E5B" stroke-miterlimit="10" d="M40,0.628c-19.883,0-36,16.117-36,36
				c0,16.598,11.236,30.563,26.515,34.726c-0.022-0.142-2.071-12.799,3.103-15.708c-6.149-1.178-16.741-1.844-17.875-16.714
				c-0.711-8.622,3.861-12.604,3.861-12.604s-1.986-4.094,0.391-10.187c5.203-0.409,10.578,3.94,10.578,3.94s9.027-2.99,19.244,0
				c3.896-2.938,8.203-4.433,10.709-3.968c0.707,1.771,2.1,6.339,0.219,10.212c3.275,3.842,5.215,8.344,3.451,15.763
				c-1.764,7.42-6.336,12.527-17.461,13.556c3.838,2.547,3.387,6.59,3.242,15.571C65.003,66.888,76,53.046,76,36.626
				C76,16.744,59.882,0.628,40,0.628z"/>
			<path fill="none" stroke="#2C3E5B" stroke-miterlimit="10" d="M30.572,71.372"/>
		</g>
	</a>

	<a xlink:href="mailto:m.sharpe@project89.org">
		<g class="sprite" id="email">
			<circle fill="none" stroke="#2C3E5B" stroke-miterlimit="10" cx="40" cy="36" r="36"/>
			<path fill="none" stroke="#2C3E5B" stroke-miterlimit="10" d="M10.401,15.509c2.448,2.368,19.351,21.409,29.437,25.382
				c10.697-3.301,26.944-22.463,29.764-25.382"/>
			<line fill="none" stroke="#2C3E5B" stroke-miterlimit="10" x1="7.198" y1="50.852" x2="27.948" y2="32.796"/>
			<line fill="none" stroke="#2C3E5B" stroke-miterlimit="10" x1="73.204" y1="49.932" x2="52.368" y2="33.204"/>
		</g>
	</a>

	<a xlink:href="http://www.linkedin.com/in/michaelpsharpe" target="_top">
		<g class="sprite" id="linked-in">
			<circle fill="none" stroke="#2C3E5B" stroke-miterlimit="10" cx="40" cy="36" r="36.001"/>
			<g>
					<line fill="none" stroke="#2C3E5B" stroke-linecap="round" stroke-miterlimit="10" x1="27.336" y1="25.403" x2="27.336" y2="48.409"/>
				
					<line fill="none" stroke="#2C3E5B" stroke-linecap="round" stroke-miterlimit="10" x1="34.071" y1="25.407" x2="34.071" y2="48.411"/>
				<path fill="none" stroke="#2C3E5B" stroke-linecap="round" stroke-miterlimit="10" d="M34.071,35.341c0,0,0-10.471,9.939-10.471
					c9.834,0,10.184,9.077,10.185,10.471c0.001,1.395,0.007,13.068,0.007,13.068"/>
				<circle fill="#2C3E5B" stroke="#2C3E5B" stroke-miterlimit="10" cx="27.451" cy="20.33" r="2.034"/>
			</g>
		</g>
	</a>
</g>
</svg>
